<?xml version="1.0" encoding="UTF-8" standalone="no"?>
<svg width="256" height="256" version="1.1" viewBox="0 0 256 256" xmlns="http://www.w3.org/2000/svg">
  <path
     id="tail"
     d="m 122.12212,59.306855 c 1.13669,-23.12713 29.55405,-56.8699914 34.47972,-57.2491246 4.92567,-0.3791331 -10.60914,53.4577926 -14.77702,57.2491246 -4.16788,3.791336 -19.3238,1.137403 -19.7027,0 z"
     fill="#000000"
     style="fill:#000000;fill-opacity:1;stroke:none;"/>
  <ellipse
     id="shadow"
     cx="126.51324"
     cy="238.151"
     rx="85.557793"
     ry="16.432812"
     style="opacity:0.997;fill:#000000;fill-opacity:0.24175826"/>
  <path
     id="paw-right"
     d="m 194.94028,221.8186 c 0,16.33306 -13.24627,15.74919 -29.57677,15.74919 -16.32293,0 -29.57679,0.58387 -29.57679,-15.74919 0,-16.34065 13.25386,-29.59516 29.57679,-29.59516 16.3305,0 29.57677,13.25451 29.57677,29.59516 z"
     fill="#bf5f00"
     stroke-linecap="round"
     stroke-width="4"
     stroke="#000000"
     stroke-linejoin="round"
     style="fill:#000000;fill-opacity:1;stroke:none;stroke-width:3;stroke-miterlimit:4;stroke-dasharray:none;stroke-opacity:1" />
  <path
     id="paw-left"
     d="m 109.93664,220.89815 c 0,16.33306 -13.246271,15.74919 -29.576773,15.74919 -9.078393,0 -17.201966,0.18198 -22.627789,-2.46436 -4.334593,-2.11557 -6.94899,-6.03581 -6.94899,-13.28483 0,-16.34065 13.253855,-29.59516 29.576779,-29.59516 16.330502,0 29.576773,13.25451 29.576773,29.59516 z"
     fill="#bf5f00"
     stroke-linecap="round"
     stroke-width="4"
     stroke="#000000"
     stroke-linejoin="round"
     style="fill:#000000;fill-opacity:1;stroke:none;stroke-width:3;stroke-miterlimit:4;stroke-dasharray:none;stroke-opacity:1" />
  <path
     id="body"
     d="m 218.17892,143.69301 a 93.500374,93.558433 0 1 1 -186.992509,0 93.500374,93.558433 0 1 1 186.992509,0 z"
     fill="#bf5f00"
     stroke-linecap="round"
     stroke-width="2.2041"
     stroke="#000000"
     stroke-linejoin="round"
     style="fill:#b8905f;fill-opacity:1;stroke:none;stroke-width:5;stroke-miterlimit:4;stroke-dasharray:none" />
  <path
     id="ear-right"
     d="m 164.5804,123.1461 c 48.8967,-3.06216 65.8759,62.16422 59.19846,77.554 -5.43098,12.50913 -58.97492,35.38862 -57.76407,23.91335 3.92633,-37.2354 -16.68566,-100.51238 -1.43439,-101.46735 z"
     fill="#000000"
     stroke-width="4"
     stroke="#000000"
     fill-rule="evenodd"
     stroke-linejoin="round"
     style="fill:#3f352c;fill-opacity:1;stroke:none;stroke-width:3;stroke-miterlimit:4;stroke-dasharray:none;stroke-opacity:1" />
  <path
     id="ear-left"
     d="m 78.96006,122.60902 c -41.815755,-3.0888 -54.685407,61.32479 -48.974953,76.84837 4.644502,12.61789 62.385819,37.33526 61.350324,25.76023 -3.357746,-37.55913 0.667306,-101.64533 -12.375371,-102.6086 z"
     fill="#000000"
     stroke-width="4"
     stroke="#000000"
     fill-rule="evenodd"
     stroke-linejoin="round"
     style="fill:#3f352c;fill-opacity:1;stroke:none;stroke-width:3;stroke-miterlimit:4;stroke-dasharray:none;stroke-opacity:1"/>
  <path
     id="head"
     d="m 196.22805,170.28417 a 72.28401,72.328895 0 1 1 -144.561649,0 72.28401,72.328895 0 1 1 144.561649,0 z"
     fill="#bf5f00"
     stroke-linecap="round"
     stroke-width="2.8511"
     stroke="#000000"
     stroke-linejoin="round"
     style="fill:#b88e5f;fill-opacity:1;stroke:none;stroke-width:5;stroke-miterlimit:4;stroke-dasharray:none" />
  <path
     id="eye-left"
     d="m 116.6677,169.86613 a 22.871416,22.657991 0 1 1 -45.740803,0 22.871416,22.657991 0 1 1 45.740803,0 z"
     fill="#ffffff"
     stroke-linecap="round"
     stroke-width="4.00002"
     stroke="#000000"
     stroke-linejoin="round"
     style="stroke:none" />
  <path
     id="eye-right"
     d="m 172.14898,168.98593 a 22.871416,22.659558 0 1 1 -45.74084,0 22.871416,22.659558 0 1 1 45.74084,0 z"
     fill="#ffffff"
     stroke-linecap="round"
     stroke-width="9.931"
     stroke="#000000"
     stroke-linejoin="round"
     style="stroke:none;stroke-width:3.99999;stroke-miterlimit:4;stroke-dasharray:none" />
  <path
     id="nose"
     d="m 140.42398,191.79683 c 0,8.89412 -10.59032,16.11533 -17.60603,16.11533 -7.54946,0 -17.59901,-7.22121 -17.59901,-16.11533 0,-8.90058 7.88655,-11.16124 17.59901,-11.16124 9.71948,0 17.60603,2.26066 17.60603,11.16124 z"
     style="fill:#3f352c;fill-opacity:1;stroke:none;stroke-width:1" />
  <path
     style="opacity:0.997;fill:#FFC14D;fill-opacity:1;stroke:none;stroke-width:3.35653;stroke-linecap:round;stroke-linejoin:round;stroke-miterlimit:4;stroke-dasharray:none;stroke-opacity:1;paint-order:markers fill stroke"
     id="hat"
     type="arc"
     cx="-125.79543"
     cy="-137.13428"
     rx="61.250721"
     ry="46.802094"
     start="0"
     end="3.1415927"
     open="true"
     arc-type="arc"
     d="m 59.83006,130.93142 a 63.67685,54.037546 0 0 1 31.838425,-46.797905 63.67685,54.037546 0 0 1 63.676855,10e-7 63.67685,54.037546 0 0 1 31.83841,46.797904" />
  <path
     id="mouth"
     d="m 134.50894,217.23375 c 0.5083,12.78817 -20.08311,20.59225 -24.5723,-1.6399 3.70563,-4.97923 24.41998,-4.47279 24.5723,1.6399 z"
     fill="#ff0000"
     stroke-width="4"
     stroke-linecap="round"
     stroke="#000000"
     fill-rule="evenodd"
     stroke-linejoin="round"
     style="fill:#ff5c5c;fill-opacity:1;stroke:none;stroke-width:2;stroke-miterlimit:4;stroke-dasharray:none;stroke-opacity:1" />
  <circle
     fill="#000000"
     stroke="#000000"
     stroke-width="2.8511"
     stroke-dasharray="none"
     stroke-linejoin="round"
     stroke-linecap="round"
     stroke-opacity="null"
     cx="97.755684"
     cy="167.73087"
     id="pupil-left"
     style="stroke:none;stroke-width:8.00001;stroke-miterlimit:4;stroke-dasharray:none"
     r="10.396098" />
  <circle
     fill="#000000"
     stroke="#000000"
     stroke-width="2.8511"
     stroke-dasharray="none"
     stroke-linejoin="round"
     stroke-linecap="round"
     stroke-opacity="null"
     cx="146.17186"
     cy="167.26112"
     id="pupil-right"
     style="stroke:none;stroke-width:8.00001;stroke-miterlimit:4;stroke-dasharray:none"
     r="10.396098" />
  <ellipse
     style="opacity:0.997;fill:#FFC14D;fill-opacity:1;stroke:none;stroke-width:4;stroke-linecap:round;stroke-linejoin:round;stroke-miterlimit:4;stroke-dasharray:none;stroke-opacity:1;paint-order:markers fill stroke"
     id="hat-brim"
     cx="123.12239"
     cy="127.90695"
     rx="68.067749"
     ry="13.24893" />
</svg>
