<?xml version="1.0" encoding="UTF-8" standalone="no"?>
<svg width="256" height="256" version="1.1" viewBox="0 0 256 256" xmlns="http://www.w3.org/2000/svg">
   <ellipse
      id="shadow"
      cx="125"
      cy="238"
      rx="85"
      ry="16"
      style="fill: #000000; fill-opacity: 0.25"/>
  <path
     id="tail"
     d="m 122, 59 c 1, -23 30, -57 34, -57 5, 0 -11, 53 -15, 57 -4, 4 -19, 1 -20, 0 z"
     style="fill: #000000"/>
   <path
     id="paw-right"
     d="m 197, 223 c 0, 16 -13, 16 -30, 16 -16, 0 -30, 1 -30, -16 0, -16 13, -30 30, -30 16, 0 30, 13 30, 30 z"
     style="fill: #000000"/>
  <path
     id="paw-right-3"
     d="m 113, 223 c 0, 16 -13, 16 -30, 16 -16, 0 -30, 1 -30, -16 0, -16 13, -30 30, -30 16, 0 30, 13 30, 30 z"
     style="fill: #000000"/>
  <path
     id="body"
     d="m 218, 144 a 93, 93 0 1 1 -187, 0 93, 93 0 1 1 187, 0 z"
     style="fill: #b8905f"/>
  <path
     id="ear-left"
     d="m 79, 123 c -42, -3 -55, 61 -49, 77 5, 13 62, 37 61, 26 -3, -38 1, -102 -12, -103 z"
     style="fill: #3f352c"/>
  <path
     id="ear-right"
     d="m 167, 123 c 42, -3 55, 61 49, 77 -5, 13 -62, 37 -61, 26 3, -38 -1, -102 12, -103 z"
     style="fill: #3f352c"/>
  <path
     id="head"
     d="m 196, 175 a 72, 72 0 1 1 -145, 0 72, 72 0 1 1 145, 0 z"
     style="fill: #b88e5f"/>
  <path
     id="eye-left"
     d="m 117, 170 a 23, 23 0 1 1 -46, 0 23, 23 0 1 1 46, 0 z"
     style="fill: #ffffff"/>
  <path
     id="eye-right"
     d="m 172, 170 a 23, 23 0 1 1 -46, 0 23, 23 0 1 1 46, 0 z"
     style="fill: #ffffff"/>
  <path
     id="nose"
     d="m 140, 192 c 0, 9 -11, 16 -18, 16 -8, 0 -18, -7 -18, -16 0, -9 8, -11 18, -11 10, 0 18, 2 18, 11 z"
     style="fill: #3f352c"/>
  <path
     id="mouth"
     d="m 135, 217 c 06, 13 -20, 20 -25, -2 4, -5 24, -4 25, 2 z"
     style="fill: #ff5c5c"/>
  <circle
     id="pupil-left"
     cx="98"
     cy="168"
     r="10"
     style="fill: #000000"/>
  <circle
     id="pupil-right"
     cx="146"
     cy="168"
     r="10"
     style="fill: #000000"/>
  <path
     id="hat"
     type="arc"
     cx="-126"
     cy="-137"
     rx="61"
     ry="47"
     start="0"
     end="3.14"
     open="true"
     arc-type="arc"
     d="m 60, 131 a 64, 54 0 0 1 32, -47 64, 54 0 0 1 64, 0 64, 54 0 0 1 32, 47"
     style="fill: #FFC14D"/>
  <ellipse
     id="hat-brim"
     cx="123"
     cy="128"
     rx="68"
     ry="13"
     style="fill: #FFC14D"/>
</svg>
